<svg xmlns="http://www.w3.org/2000/svg" xmlns:xlink="http://www.w3.org/1999/xlink" width="30" height="28.56" viewBox="0 0 30 28.56"><defs><style>.a{fill:#0074bc;}.b{fill:#005992;}.c{fill:url(#a);}.d{fill:url(#b);}.e{fill:url(#c);}.f,.g,.h,.i,.j,.k,.l{fill-rule:evenodd;}.f{fill:url(#d);}.g{fill:url(#e);}.h{fill:url(#f);}.i{fill:url(#g);}.j{fill:url(#h);}.k{fill:url(#i);}.l{fill:url(#j);}</style><linearGradient id="a" x1="0.5" y1="1" x2="0.5" gradientUnits="objectBoundingBox"><stop offset="0" stop-color="#828282"/><stop offset="1" stop-color="#fff"/></linearGradient><linearGradient id="b" x1="0.5" y1="0.998" x2="0.5" gradientUnits="objectBoundingBox"><stop offset="0.022"/><stop offset="1" stop-color="#2b2b2b"/></linearGradient><linearGradient id="c" x1="0.501" y1="0.999" x2="0.501" y2="0.001" gradientUnits="objectBoundingBox"><stop offset="0"/><stop offset="1" stop-color="#424242"/></linearGradient><linearGradient id="d" x1="0.508" y1="4.096" x2="0.508" y2="0.038" gradientUnits="objectBoundingBox"><stop offset="0" stop-color="#969696"/><stop offset="1" stop-color="#f7f7f7"/></linearGradient><linearGradient id="e" x1="0.508" y1="4.096" x2="0.508" y2="0.038" xlink:href="#d"/><linearGradient id="f" x1="0.498" y1="2.576" x2="0.498" y2="-1.483" xlink:href="#d"/><linearGradient id="g" x1="0.504" y1="2.576" x2="0.504" y2="-1.483" xlink:href="#d"/><linearGradient id="h" x1="0.499" y1="3.197" x2="0.499" y2="-0.857" xlink:href="#d"/><linearGradient id="i" x1="0.495" y1="1.617" x2="0.495" y2="-2.442" xlink:href="#d"/><linearGradient id="j" x1="0.502" y1="0.992" x2="0.502" y2="-3.067" xlink:href="#d"/></defs><path class="a" d="M12.42,7.1H29.76a3.739,3.739,0,0,1,3.72,3.72v12.3a3.69,3.69,0,0,1-3.18,3.66V31.4l-5.4-4.62H12.42A3.739,3.739,0,0,1,8.7,23.06V10.82A3.739,3.739,0,0,1,12.42,7.1Z" transform="translate(-3.48 -2.84)"/><g transform="translate(5.34 4.44)"><path class="b" d="M32.52,7.4c0,.18.06.3.06.48V20.66a3.482,3.482,0,0,1-3.48,3.48H15.9l-3,2.64a4.674,4.674,0,0,0,1.26.24h.42l1.8-1.62H29.1a4.712,4.712,0,0,0,4.74-4.74V8.12A3.189,3.189,0,0,0,32.52,7.4Z" transform="translate(-10.5 -7.4)"/><path class="b" d="M9.08,35.4H8.9a4.134,4.134,0,0,0,.18.48Z" transform="translate(-8.9 -18.6)"/></g><path class="c" d="M23.76,0H4.74A4.712,4.712,0,0,0,0,4.74V17.52A4.728,4.728,0,0,0,4.08,22.2v6.12l6.96-6.06H23.76a4.712,4.712,0,0,0,4.74-4.74V4.74A4.712,4.712,0,0,0,23.76,0Zm3.48,17.52A3.482,3.482,0,0,1,23.76,21H10.56L5.4,25.56V21.12l-1.08-.18a3.533,3.533,0,0,1-3-3.42V4.74A3.483,3.483,0,0,1,4.8,1.26H23.82A3.483,3.483,0,0,1,27.3,4.74V17.52Z"/><path class="d" d="M6.18,21.96,5.1,21.78a3.533,3.533,0,0,1-3-3.42V5.58A3.483,3.483,0,0,1,5.58,2.1H24.6a3.483,3.483,0,0,1,3.48,3.48V18.36a3.483,3.483,0,0,1-3.48,3.48H11.4L6.24,26.4V21.96Z" transform="translate(-0.84 -0.84)"/><path class="e" d="M26.94,3.06a3.351,3.351,0,0,0-2.4-.96H5.58A3.483,3.483,0,0,0,2.1,5.58V18.36a3.434,3.434,0,0,0,3,3.42l1.08.18V24.6Z" transform="translate(-0.84 -0.84)"/><g transform="translate(6 5.4)"><path class="f" d="M15.82,10.26c0-.54-.36-1.26-1.8-1.26H11.8l-.6,2.88h2.28C15.34,11.88,15.82,11.04,15.82,10.26Z" transform="translate(-10.48 -9)"/><path class="g" d="M25.72,10.26c0-.54-.36-1.26-1.8-1.26H21.7l-.6,2.88h2.34C25.24,11.88,25.72,11.04,25.72,10.26Z" transform="translate(-14.44 -9)"/><path class="h" d="M14.56,17.56c0-.54-.36-1.26-1.8-1.26H10.6L10,19.18h2.28C14.08,19.18,14.56,18.34,14.56,17.56Z" transform="translate(-10 -11.92)"/><path class="i" d="M24.42,17.56c0-.54-.36-1.26-1.8-1.26H20.4l-.6,2.88h2.28C23.94,19.18,24.42,18.34,24.42,17.56Z" transform="translate(-13.92 -11.92)"/><path class="j" d="M34.82,14.56c0-.54-.36-1.26-1.8-1.26H30.8l-.6,2.88h2.28C34.28,16.24,34.82,15.34,34.82,14.56Z" transform="translate(-18.08 -10.72)"/><path class="k" d="M33.42,22.16c0-.54-.36-1.26-1.8-1.26H29.4l-.6,2.88h2.28C32.88,23.78,33.42,22.94,33.42,22.16Z" transform="translate(-17.52 -13.76)"/><path class="l" d="M23.02,25.16c0-.54-.36-1.26-1.8-1.26H19l-.6,2.88h2.28C22.48,26.78,23.02,25.94,23.02,25.16Z" transform="translate(-13.36 -14.96)"/></g></svg>